<svg id="Layer_1" data-name="Layer 1" xmlns="http://www.w3.org/2000/svg" viewBox="0 0 152.81 165.02"><defs><style>.cls-1{fill:#fff;}</style></defs><title>deckedoutlogo-3</title><path class="cls-1" d="M100,169.21A69.21,69.21,0,1,1,169.21,100,69.29,69.29,0,0,1,100,169.21Zm0-132.42A63.21,63.21,0,1,0,163.21,100,63.29,63.29,0,0,0,100,36.79Z" transform="translate(-16.4 -4.19)"/><path class="cls-1" d="M16.4,53.31l2.86-4.55c1.82-2.87,4.3-3.27,7.22-1.43l9.25,5.84c2.92,1.84,3.62,4.26,1.81,7.13l-2.87,4.54Zm4.42-1.23,13.06,8.24,1-1.62c.57-.91.45-1.76-.86-2.58l-9.5-6c-1.3-.82-2.12-.57-2.7.34Z" transform="translate(-16.4 -4.19)"/><path class="cls-1" d="M33.91,44.18,37,40.66l2.33,2-3,3.52L41,50.35l3.84-4.44,2.34,2-6.07,7L24.8,40.79l6.06-7,2.34,2-3.84,4.43Z" transform="translate(-16.4 -4.19)"/><path class="cls-1" d="M50.37,34.45l1.87,2.18c2.26,2.62,2.24,5.24-.29,7.42s-5.13,1.8-7.38-.82l-7.33-8.51C35,32.1,35,29.47,37.53,27.3s5.12-1.81,7.38.81l1.37,1.59-2.43,2.1L42.33,30c-1-1.17-1.9-1.17-2.72-.46s-1,1.59.06,2.76l7.61,8.84c1,1.17,1.89,1.15,2.7.44s1-1.57,0-2.74l-2-2.33Z" transform="translate(-16.4 -4.19)"/><path class="cls-1" d="M55.89,30.13,56,32.37,59.54,38l-2.89,1.8L45.26,21.44l2.88-1.8,4.94,8,.05,0L51.92,17.3l2.89-1.79,1.06,10.67L66.2,33.87l-3,1.84Z" transform="translate(-16.4 -4.19)"/><path class="cls-1" d="M65.15,20.8,69.44,19l1.21,2.84-4.29,1.82,2.48,5.82,5.39-2.29L75.44,30l-8.51,3.63L58.46,13.76,67,10.13,68.18,13l-5.39,2.3Z" transform="translate(-16.4 -4.19)"/><path class="cls-1" d="M71.36,8.62l5.21-1.33c3.29-.84,5.37.57,6.22,3.92L85.5,21.8c.85,3.35-.29,5.58-3.58,6.43l-5.21,1.33Zm4.06,2.15,3.82,15,1.85-.47c1-.27,1.54-1,1.16-2.46L79.46,11.9c-.38-1.49-1.14-1.87-2.19-1.6Z" transform="translate(-16.4 -4.19)"/><path class="cls-1" d="M91.76,9.8c-.11-3.45,1.64-5.49,5-5.6S102,6,102.07,9.46l.38,11.23c.11,3.45-1.64,5.49-5,5.6s-5.22-1.8-5.34-5.26Zm3.78,11.33c0,1.55.75,2.11,1.83,2.07s1.74-.64,1.69-2.18L98.67,9.35c-.06-1.54-.75-2.1-1.83-2.07s-1.74.65-1.69,2.19Z" transform="translate(-16.4 -4.19)"/><path class="cls-1" d="M109.82,4.88l-2,16.55c-.19,1.53.42,2.16,1.49,2.29s1.81-.34,2-1.87l2-16.55,3.19.39-2,16.33c-.41,3.43-2.36,5.18-5.67,4.79s-4.79-2.57-4.38-6l2-16.33Z" transform="translate(-16.4 -4.19)"/><path class="cls-1" d="M120.21,6.39l10.13,2.77-.82,3-3.42-.94-4.89,17.86-3.28-.89,4.89-17.86-3.42-.94Z" transform="translate(-16.4 -4.19)"/><path class="cls-1" d="M71,62.78c.65,2.72,1.25,5.5,2,8.23.19.69.7,1.68,1.26,1.83,3.69,1,7.45,1.85,11.31,2.78-1.78-1.19-3.47-2.41-5.25-3.48-4.45-2.68-5.48-7-5.66-11.69,0-1,1.19-2.32,2.18-2.9A37.81,37.81,0,0,1,91.6,52.94a67.34,67.34,0,0,1,19.89.78,33,33,0,0,1,15.75,7.58c-2.72,3.8-6.76,5.79-10.33,8.6a11.37,11.37,0,0,0,2-.43c3.43-1.43,6.82-3,10.3-4.32a3,3,0,0,1,2.63.3c9.48,10.26,15.1,22,13.52,36.38-.54,4.86-3.5,8.08-8,9.54-3.52,1.14-7.26,1.6-10.9,2.4-1.14.25-2.26.57-3.38.92a4,4,0,0,0-3.07,4.47c.3,6.13.72,12.26.89,18.4a50,50,0,0,1-.64,7.4,1.75,1.75,0,0,1-1,1.22c-1.75.46-3.54.76-6,1.24-.15-2.72-.21-5.21-.45-7.68a55.71,55.71,0,0,0-1-6.81c-.1-.43-1.18-.72-1.85-.86-.14,0-.68.83-.7,1.29,0,1.51.74,3.63,0,4.41-1.78,1.91-4.22,3.2-6.39,4.74l-.76-.3,0-3.53c0-1.54,0-3.08,0-4.61,0-2.66-.08-2.69-2.91-2.17-.44,3.65-.95,7.33-1.3,11-.12,1.28-.36,2.17-1.86,2s-3.25.81-3.8-1.69c-.78-3.57-1.79-7.08-2.74-10.61a3.11,3.11,0,0,0-1-1.47,10.71,10.71,0,0,0-1.89,6.23c.13,2.53.11,5.07.1,7.61,0,1.26-.65,1.74-2,1.67-3.42-.18-5.15-1.32-5.48-4.74a73.62,73.62,0,0,1,0-10.71c.19-3.79.66-7.56,1-11.33.18-1.67-2.23-4.93-3.89-5.23-4.24-.77-8.47-1.64-12.72-2.37a10.06,10.06,0,0,1-8.86-9C52.49,87.13,57.92,73.8,70.08,63.09a2.24,2.24,0,0,1,.57-.31A2,2,0,0,1,71,62.78Zm51.47,42.8v.14c3.78-.31,7.59-.4,11.33-1a5.47,5.47,0,0,0,4.81-4.76c1.09-6.79-4.95-14.62-11.76-15.69-9.27-1.46-18.08,8.94-18,16.57,0,2.92,1.68,4.69,4.59,4.79S119.49,105.61,122.49,105.58Zm-44.45.5v-.21c2.92,0,5.86.13,8.75-.13,3.84-.34,5.35-2.51,4.77-6.31-1-6.38-7.54-13.38-13.9-14.61a11,11,0,0,0-4.53-.07c-6.2,1.47-9.62,5.75-11.06,11.73-1.23,5.1,1,8.34,6.14,9C71.46,105.88,74.76,105.89,78,106.08Zm19.51-4a29.7,29.7,0,0,0-1.87,2.62c-3.17,5.94-3.32,12.35-2.76,18.83.09,1,.36,2.37,2.06,1.64a11.66,11.66,0,0,1,9.77.22c1.36.61,2,.19,2.1-1.12.16-3.35.19-6.71.25-10.06,0-.2-.16-.4-.24-.6l-3.47-8.28c-.26-.6-.58-1.17-.87-1.76-.89,5.36-1.27,10.59-1.73,15.82,0,.5-.56,1-.86,1.43-.36-.45-1-.86-1-1.34-.27-2-.4-4.08-.55-6.12C98.08,109.85,97.84,106.31,97.55,102.11Z" transform="translate(-16.4 -4.19)"/></svg>