<?xml version="1.0" encoding="utf-8"?>
<!-- Generator: Adobe Illustrator 23.0.1, SVG Export Plug-In . SVG Version: 6.00 Build 0)  -->
<svg version="1.1" id="Layer_1" xmlns="http://www.w3.org/2000/svg" xmlns:xlink="http://www.w3.org/1999/xlink" x="0px" y="0px"
	 viewBox="0 0 81 113.53" style="enable-background:new 0 0 81 113.53;" xml:space="preserve">
<style type="text/css">
	.st0{fill:#313131;}
</style>
<g>
	<g>
		<path class="st0" d="M16.12,0.1c4.98-0.06,9.95-0.02,14.93-0.02c0.01,1.56,0.04,3.11-0.02,4.67c-3.45-0.02-6.89,0-10.34,0.02
			c-0.02,2.26-0.07,4.52-0.05,6.78c3.46,0.02,6.92,0.05,10.38,0.04c0.04,1.28,0.03,2.56-0.01,3.85c-4.96-0.03-9.93-0.02-14.89-0.01
			C16.14,10.32,16.15,5.21,16.12,0.1z"/>
		<path class="st0" d="M32.83,0.08c5.04-0.01,10.08-0.04,15.12,0.02c-0.02,1.47,0,2.94,0,4.41c-3.67-0.01-7.34,0-11,0.05
			c0,0.58,0,1.16,0,1.73c3.66,0.06,7.32,0.07,10.98,0.09c0.01,3.02,0.01,6.03,0.03,9.05c-5.04-0.01-10.08,0-15.12,0.02
			c-0.03-1.22-0.03-2.43,0.01-3.65c3.49,0.01,6.99,0.01,10.48-0.01c0.02-0.78,0.03-1.57,0.03-2.36c-3.51,0-7.02,0.01-10.53-0.01
			C32.81,6.3,32.81,3.19,32.83,0.08z"/>
		<path class="st0" d="M49.63,0c5.03,0,10.06,0,15.09,0c0.02,1.48,0.04,2.96,0,4.43c-3.68,0-7.37,0.02-11.05,0.03
			c0.01,0.6,0.02,1.21,0.05,1.81c3.66-0.02,7.32,0.03,10.98,0.07c0.03,3,0.06,6.01,0.01,9.01c-5.04-0.01-10.08-0.01-15.12,0.01
			c-0.03-1.21-0.04-2.43,0.01-3.65c3.49,0.03,6.98,0.02,10.46-0.01c0.01-0.79,0.03-1.57,0.02-2.36c-3.5,0.03-7,0.01-10.51,0
			C49.59,6.23,49.61,3.11,49.63,0z"/>
	</g>
	<g>
		<path class="st0" d="M0,21.68c27,0,54,0,81,0c-1.49,16.79-2.95,33.59-4.5,50.37c-0.92,10.73-1.87,21.46-2.87,32.18
			c-5.76,1.53-11.47,3.27-17.23,4.8c-5.29,1.55-10.62,2.96-15.92,4.5h-0.16c-5.04-1.5-10.12-2.82-15.16-4.31
			c-5.94-1.6-11.84-3.39-17.78-4.98C6.62,96.2,5.92,88.15,5.23,80.11C3.93,65.25,2.51,50.4,1.26,35.54
			C0.83,31.07,0.52,26.58,0,22.12v-0.55 M40.54,28.41c-0.06,3.23,0.04,6.45-0.06,9.68c-9.26-0.03-18.53-0.01-27.79,0
			c0.16,3.13,0.58,6.24,1.01,9.35c8.62,0.32,17.25-0.01,25.87,0.25c-7.54,3.38-15.17,6.57-22.74,9.88
			c-0.65,0.29-1.34,0.51-1.92,0.93c0.06,3.44,0.62,6.86,0.86,10.29c4.59-0.02,9.18-0.09,13.78-0.1c3.68-0.02,7.36,0.05,11.04-0.03
			c-0.18,5.66,0.05,11.32-0.12,16.97c-2.48-0.37-4.92-0.92-7.39-1.36c-1.95-0.42-3.94-0.64-5.86-1.2c-0.27-2.71-0.46-5.44-0.7-8.15
			c-0.55-0.17-1.14-0.15-1.72-0.16c-2.78,0.02-5.57-0.01-8.35,0.03c0.27,5.22,0.74,10.44,1.54,15.61c2.74,0.72,5.49,1.42,8.23,2.16
			c4.2,1.14,8.45,2.09,12.65,3.22c0.5,0.11,1,0.29,1.52,0.25c0.28,3.43,0.06,6.89,0.12,10.33c0.97-0.16,1.92-0.4,2.86-0.68
			c7.96-2.16,15.91-4.36,23.86-6.55c0.4-3.13,0.58-6.28,0.89-9.41c0.83-9.53,1.66-19.07,2.53-28.6c1.02-10.9,1.9-21.82,2.92-32.72
			C62.57,28.41,51.55,28.38,40.54,28.41z"/>
	</g>
	<g>
		<path class="st0" d="M40.54,28.41c11.01-0.04,22.02,0,33.04-0.01c-1.02,10.9-1.9,21.82-2.92,32.72c-0.87,9.53-1.7,19.06-2.53,28.6
			c-0.31,3.14-0.5,6.29-0.89,9.41c-7.95,2.18-15.9,4.38-23.86,6.55c-0.94,0.29-1.89,0.53-2.86,0.68c-0.05-3.44,0.16-6.9-0.12-10.33
			c0.07-0.01,0.22-0.04,0.29-0.06c7.4-1.86,14.75-3.9,22.14-5.83c0.93-10.48,1.97-20.95,2.63-31.44
			c-6.28,0.03-12.56,0.01-18.85,0.04c-0.91,0-1.83,0-2.74-0.07c3.38-1.74,6.94-3.12,10.4-4.67c3.33-1.51,6.7-2.92,10.04-4.41
			c0.64-0.3,1.33-0.54,1.9-0.98c0.22-0.82,0.21-1.67,0.3-2.51c0.19-2.65,0.53-5.29,0.66-7.95c-8.9-0.07-17.79-0.01-26.69-0.06
			C40.58,34.87,40.49,31.64,40.54,28.41z"/>
		<path class="st0" d="M40.59,68.66c4.29-0.07,8.59,0.04,12.89,0.01c-0.24,4.39-0.6,8.78-0.83,13.17c-2.63,0.86-5.31,1.59-7.96,2.38
			c-1.41,0.43-2.87,0.77-4.21,1.41C40.64,79.98,40.41,74.31,40.59,68.66z"/>
	</g>
</g>
</svg>
