<?xml version="1.0" encoding="utf-8"?>
<!-- Generator: Adobe Illustrator 23.0.1, SVG Export Plug-In . SVG Version: 6.00 Build 0)  -->
<svg version="1.1" id="Layer_1" xmlns="http://www.w3.org/2000/svg" xmlns:xlink="http://www.w3.org/1999/xlink" x="0px" y="0px"
	 viewBox="0 0 129.76 37.8" style="enable-background:new 0 0 129.76 37.8;" xml:space="preserve">
<style type="text/css">
	.st0{fill:#313131;}
</style>
<g>
	<path class="st0" d="M19.99,0c0.18,1.14-0.69,0.81-1.22,0.81C13.52,0.83,8.26,0.82,3,0.82c-0.62,0-1.24,0-1.96,0
		c0,4.41,0,8.71,0,13.27c5.93,0,11.9,0,17.86,0c0.01,0.18,0.02,0.36,0.03,0.54c-1.32,0.64-2.79,0.21-4.17,0.28
		c-1.51,0.08-3.02,0.02-4.53,0.02s-3.02,0-4.53,0c-1.51,0-3.02,0-4.64,0c0,4.82,0,9.58,0,14.47c0.54,0.03,1.1,0.08,1.65,0.08
		c5.67,0.01,11.35,0.02,17.02-0.02c0.46,0,1.06-0.32,1.35-0.68c2.29-2.9,4.49-5.87,6.78-8.77c0.6-0.76,0.58-1.25,0-2
		c-2.35-3.03-4.62-6.12-6.92-9.19c0.11-0.12,0.21-0.25,0.32-0.37c0.42,0.38,0.92,0.7,1.25,1.14c2.16,2.86,4.28,5.74,6.54,8.77
		c2.76-3.35,5.04-6.91,7.8-10.06c0.16,0.13,0.32,0.27,0.49,0.4c-1.96,2.6-3.91,5.21-5.87,7.8c-1.91,2.53-1.91,2.51,0.07,5.07
		c2.19,2.83,4.37,5.68,6.55,8.53c-0.1,0.11-0.2,0.22-0.3,0.33c-0.4-0.34-0.88-0.61-1.19-1.02c-2.49-3.19-4.94-6.41-7.53-9.78
		c-2.49,3.24-4.92,6.33-7.26,9.5c-0.66,0.9-1.35,1.21-2.45,1.2C12.91,30.28,6.45,30.3,0,30.3C0,20.23,0,10.16,0,0
		C6.66,0,13.33,0,19.99,0z"/>
	<path class="st0" d="M39.98,37.8c0-9.75,0-19.49,0-29.24c0.18-0.01,0.37-0.03,0.55-0.04c0.72,1.72-0.02,3.63,0.45,5.58
		c0.25-0.46,0.43-0.78,0.6-1.11c1.87-3.56,4.84-5.19,8.82-4.9c3.72,0.27,6.13,2.4,7.42,5.77c1.44,3.75,1.39,7.56-0.12,11.27
		c-1.41,3.49-4.04,5.54-7.87,5.63c-3.89,0.09-6.83-1.54-8.45-5.23c-0.08-0.18-0.18-0.35-0.48-0.93c0,4.67,0,8.93,0,13.19
		C40.61,37.8,40.3,37.8,39.98,37.8z M40.65,19.64c0.32,1.62,0.49,3.29,0.99,4.85c1.06,3.24,3.93,5.33,7.23,5.51
		c3.61,0.19,6.41-1.38,7.89-4.68c1.75-3.88,1.8-7.86,0.06-11.78c-1.26-2.86-3.51-4.5-6.62-4.71c-3.13-0.21-5.67,1.03-7.46,3.66
		C41.28,14.63,40.81,17.05,40.65,19.64z"/>
	<path class="st0" d="M91.55,19.53c-6.34,0-12.25,0-18.13,0c-0.91,3.77,1.47,8.65,4.98,9.82c1.61,0.54,3.54,0.75,5.18,0.43
		c1.63-0.32,3.38-1.23,4.55-2.4c1.17-1.16,1.69-2.97,2.6-4.69c0.07,0.41,0.2,0.72,0.15,1c-0.42,2.23-1.47,4.09-3.37,5.41
		c-5.91,4.14-13.49,1.05-14.78-6.02c-0.7-3.84-0.57-7.58,1.68-10.95c2.11-3.15,5.16-4.46,8.88-4c3.52,0.44,5.93,2.49,7.09,5.79
		C90.98,15.63,91.14,17.5,91.55,19.53z M90.42,18.66c0.24-5.78-3.64-10.08-8.84-9.85c-5.24,0.22-8.51,5.28-8.25,9.85
		C79.03,18.66,84.73,18.66,90.42,18.66z"/>
	<path class="st0" d="M94.32,22.86c0.1,0.56,0.22,1.13,0.3,1.69c0.36,2.45,1.71,4.09,4.06,4.86c2.45,0.8,4.91,0.84,7.34-0.08
		c2.29-0.87,3.45-2.44,3.43-4.52c-0.02-2.01-1.13-3.48-3.44-4.32c-1.31-0.47-2.7-0.73-4.05-1.11c-1.4-0.39-2.79-0.78-4.18-1.21
		c-1.79-0.56-2.92-1.72-3.15-3.66c-0.25-2.13,0.31-3.93,2.14-5.18c2.66-1.83,7.93-1.76,10.54,0.13c1.85,1.34,2.37,3.23,2.02,5.48
		c-0.14-0.22-0.4-0.43-0.42-0.66c-0.33-4.6-4.4-5.85-8.29-5.39c-1.28,0.15-2.67,0.66-3.7,1.42c-2.64,1.95-2.06,5.91,1.01,7.02
		c2.24,0.81,4.59,1.31,6.88,1.98c0.84,0.25,1.7,0.51,2.48,0.89c3.56,1.73,4.08,6.22,1.04,8.76c-2.97,2.49-9.68,2.35-12.57-0.26
		c-1.44-1.3-2.25-3.81-1.86-5.8C94.03,22.91,94.17,22.88,94.32,22.86z"/>
	<path class="st0" d="M128.8,15.06c-0.23-0.26-0.34-0.33-0.35-0.41c-0.96-5.36-7.25-7.84-11.74-4.63c-1.45,1.03-1.96,2.48-1.8,4.23
		c0.16,1.68,1.19,2.67,2.64,3.15c2.22,0.73,4.49,1.27,6.74,1.92c0.8,0.23,1.6,0.47,2.35,0.81c1.89,0.86,3.07,2.2,3.11,4.43
		c0.04,2.26-0.82,4.03-2.81,5c-3.36,1.65-6.87,1.67-10.25,0.1c-2.6-1.21-3.85-4.13-3.03-7.22c0.21,0.75,0.34,1.07,0.38,1.4
		c0.44,3.59,1.99,5.26,5.56,5.93c2.19,0.41,4.35,0.32,6.41-0.64c1.84-0.86,2.99-2.2,2.99-4.34c0-2.13-1.28-3.39-3.06-4.11
		c-1.43-0.58-2.99-0.86-4.49-1.29c-1.45-0.41-2.9-0.8-4.33-1.26c-3.92-1.27-3.77-6.26-1.42-8.29c2.63-2.28,8.54-2.46,11.27-0.28
		c1.6,1.27,2.13,3.02,2.19,4.96C129.18,14.65,128.98,14.81,128.8,15.06z"/>
	<path class="st0" d="M63.33,8.54c0,1.57,0,3.15,0,4.72c1.82-3.72,4.7-5.31,8.79-4.84c-0.14,0.11-0.26,0.29-0.41,0.31
		c-5.72,0.85-8.21,3.71-8.25,9.53c-0.02,3.49,0,6.97-0.01,10.46c0,0.52-0.07,1.04-0.11,1.56c-0.14-0.01-0.28-0.02-0.42-0.04
		c0-7.23,0-14.46,0-21.68C63.05,8.55,63.19,8.55,63.33,8.54z"/>
</g>
</svg>
