<?xml version="1.0" encoding="utf-8"?>
<!-- Generator: Adobe Illustrator 23.0.1, SVG Export Plug-In . SVG Version: 6.00 Build 0)  -->
<svg version="1.1" id="Layer_1" xmlns="http://www.w3.org/2000/svg" xmlns:xlink="http://www.w3.org/1999/xlink" x="0px" y="0px"
	 viewBox="0 0 80.98 114" style="enable-background:new 0 0 80.98 114;" xml:space="preserve">
<style type="text/css">
	.st0{fill:#313131;}
</style>
<g>
	<path class="st0" d="M80.98,22.34c-0.16,1.88-0.3,3.7-0.46,5.51c-0.89,9.95-1.78,19.9-2.67,29.84c-0.88,9.77-1.75,19.54-2.63,29.31
		c-0.51,5.68-1.02,11.35-1.49,17.03c-0.06,0.72-0.31,1.02-1,1.21c-10.41,2.86-20.81,5.76-31.22,8.62c-0.63,0.17-1.38,0.19-2,0.01
		c-10.38-2.85-20.75-5.75-31.13-8.6c-0.81-0.22-1.05-0.58-1.12-1.4C6.18,91.45,5.05,79.03,3.94,66.6
		C2.95,55.45,1.97,44.31,0.98,33.17C0.66,29.58,0.33,26,0,22.34C26.99,22.34,53.91,22.34,80.98,22.34z M18.37,74.66
		c-0.02,0.19-0.05,0.3-0.04,0.42c0.43,4.9,0.89,9.8,1.28,14.7c0.07,0.87,0.45,1.15,1.2,1.35c6.42,1.76,12.83,3.55,19.25,5.31
		c0.33,0.09,0.72,0.1,1.05,0.01c6.48-1.78,12.94-3.58,19.42-5.36c0.57-0.16,0.83-0.4,0.87-1.02c0.18-2.39,0.42-4.78,0.64-7.17
		c0.52-5.76,1.05-11.53,1.57-17.29c0.17-1.93,0.32-3.87,0.49-5.9c-12.4,0-24.68,0-37.03,0c-0.31-3.5-0.61-6.91-0.92-10.43
		c0.5,0,0.82,0,1.15,0c5.31,0.02,10.62,0.04,15.93,0.05c6.96,0.01,13.92-0.01,20.88,0.02c0.73,0,0.99-0.21,1.03-0.95
		c0.11-1.82,0.32-3.64,0.48-5.47c0.11-1.24,0.2-2.48,0.3-3.7c-16.99,0-33.83,0-50.79,0c0.92,10.24,1.82,20.38,2.74,30.64
		c11.75,0,23.37,0,35.09,0c-0.4,4.32-0.77,8.5-1.19,12.67c-0.02,0.22-0.39,0.5-0.64,0.57c-3.46,0.97-6.94,1.91-10.41,2.84
		c-0.22,0.06-0.48,0.05-0.7-0.01c-3.42-0.91-6.84-1.82-10.24-2.78c-0.27-0.08-0.6-0.48-0.64-0.77c-0.19-1.46-0.29-2.92-0.42-4.39
		c-0.1-1.12-0.21-2.24-0.32-3.34C24.97,74.66,21.69,74.66,18.37,74.66z"/>
	<path class="st0" d="M58.51,15.41c-1.71,0-3.35,0-5.07,0c0-2.41,0-4.77,0-7.12c-0.07-0.03-0.15-0.06-0.22-0.09
		c-1.1,1.68-2.19,3.37-3.38,5.18c-1.17-1.8-2.29-3.5-3.4-5.21c-0.06,0.02-0.12,0.04-0.18,0.06c0,2.35,0,4.7,0,7.14
		c-1.71,0-3.33,0-5.02,0c0-5.08,0-10.13,0-15.36c1.37,0,2.74,0.05,4.1-0.02c0.88-0.04,1.42,0.2,1.86,1.01
		c0.8,1.47,1.73,2.86,2.69,4.42c0.96-1.58,1.88-3.01,2.72-4.49c0.38-0.68,0.81-0.99,1.62-0.94c1.4,0.08,2.81,0.02,4.28,0.02
		C58.51,5.18,58.51,10.26,58.51,15.41z"/>
	<path class="st0" d="M12.58,15.42c-1.75,0-3.36,0-5.05,0c0-5.08,0-10.16,0-15.32c1.64,0,3.29,0,5.05,0c0,1.68,0,3.31,0,5
		c1.59,0,3.08,0,4.68,0c0-1.66,0-3.29,0-5c1.77,0,3.42,0,5.13,0c0,5.09,0,10.15,0,15.29c-1.66,0-3.32,0-5.09,0c0-1.65,0-3.28,0-5.04
		c-1.5,0-2.9-0.02-4.3,0.03c-0.15,0.01-0.4,0.46-0.41,0.7C12.56,12.49,12.58,13.9,12.58,15.42z"/>
	<path class="st0" d="M29.25,5.2c-1.56,0-2.98,0-4.48,0c0-1.74,0-3.37,0-5.09c4.7,0,9.38,0,14.12,0c0,1.66,0,3.29,0,5.05
		c-1.45,0-2.9,0-4.45,0c0,3.46,0,6.81,0,10.23c-1.75,0-3.41,0-5.2,0C29.25,12.03,29.25,8.67,29.25,5.2z"/>
	<path class="st0" d="M73.48,10.37c0,1.78,0,3.38,0,5.04c-4.11,0-8.17,0-12.29,0c0-5.11,0-10.16,0-15.38c1.57,0,3.14-0.02,4.71,0.04
		c0.14,0.01,0.38,0.53,0.38,0.81c0.02,2.82,0.04,5.64-0.01,8.45c-0.01,0.81,0.2,1.08,1.04,1.06C69.34,10.33,71.38,10.37,73.48,10.37
		z"/>
</g>
</svg>
