<?xml version="1.0" encoding="utf-8"?>
<!-- Generator: Adobe Illustrator 23.0.1, SVG Export Plug-In . SVG Version: 6.00 Build 0)  -->
<svg version="1.1" id="Layer_1" xmlns="http://www.w3.org/2000/svg" xmlns:xlink="http://www.w3.org/1999/xlink" x="0px" y="0px"
	 viewBox="0 0 114.63 114.65" style="enable-background:new 0 0 114.63 114.65;" xml:space="preserve">
<style type="text/css">
	.st0{fill:#313131;}
</style>
<g>
	<path class="st0" d="M114.63,57.3c0,16.64,0.01,33.27-0.01,49.91c0,3.21-1.56,5.48-4.45,6.84c-0.82,0.39-1.71,0.57-2.62,0.57
		c-0.19,0-0.37,0.01-0.56,0.01c-33.16,0-66.31-0.01-99.47,0.02c-3.71,0-6.76-2.58-7.39-5.93c-0.09-0.46-0.13-0.94-0.13-1.41
		C0,73.98,0,40.65,0,7.32C0,3.27,3.27,0,7.32,0c33.34,0,66.69,0,100.03,0c3.96,0,7.19,3.18,7.28,7.14c0,0.17,0,0.34,0,0.52
		C114.63,24.2,114.63,40.75,114.63,57.3z M57.34,5.46c-16.54,0-33.07,0-49.61,0c-0.26,0-0.52,0-0.77,0.04
		C6.21,5.6,5.59,6.23,5.49,6.97C5.46,7.24,5.46,7.52,5.46,7.79c0,33.03,0,66.06,0,99.09c0,0.23,0,0.46,0.02,0.69
		c0.07,0.69,0.43,1.19,1.06,1.45c0.32,0.13,0.7,0.17,1.05,0.17c33.14,0.01,66.29,0.01,99.43,0.01c0.14,0,0.29,0.01,0.43,0
		c0.85-0.06,1.51-0.62,1.68-1.46c0.05-0.25,0.06-0.51,0.06-0.77c0-33.1,0-66.2,0-99.3c0-0.27-0.02-0.55-0.08-0.81
		c-0.16-0.72-0.75-1.26-1.49-1.35c-0.25-0.03-0.51-0.03-0.77-0.03C90.35,5.46,73.84,5.46,57.34,5.46z"/>
	<path class="st0" d="M68.24,92.8c2.73-1.82,5.44-3.63,8.15-5.43c0.67,0.98,1.3,1.95,1.99,2.88c1.33,1.78,2.93,3.23,5.13,3.84
		c2.23,0.62,4.46,0.59,6.58-0.4c3.58-1.65,3.37-6.47,0.94-8.39c-1.43-1.13-3.08-1.86-4.72-2.61c-2.31-1.06-4.66-2.05-6.92-3.2
		c-2.38-1.21-4.49-2.81-6.1-4.98c-1.9-2.54-2.64-5.45-2.68-8.57c-0.09-6.39,3.64-11.51,9.78-13.29c4.2-1.22,8.41-1.12,12.52,0.42
		c3.19,1.19,5.48,3.46,7.25,6.31c0.15,0.24,0.29,0.49,0.43,0.74c0.01,0.02,0.01,0.05,0.02,0.13c-2.66,1.71-5.35,3.43-8.02,5.14
		c-0.46-0.66-0.89-1.32-1.37-1.94c-1.96-2.53-5.01-2.91-7.34-2.18c-2.2,0.69-3.36,2.8-2.95,5.17c0.27,1.55,1.2,2.64,2.51,3.36
		c1.53,0.85,3.12,1.61,4.73,2.32c2.53,1.12,5.1,2.18,7.49,3.61c2.3,1.37,4.37,2.99,5.86,5.26c1.23,1.88,1.88,3.96,2.09,6.19
		c0.19,2.07,0.14,4.12-0.42,6.13c-0.99,3.59-3.19,6.22-6.41,8.02c-2.53,1.41-5.28,2.08-8.15,2.31c-2.92,0.23-5.81,0.05-8.64-0.76
		c-5.06-1.45-8.73-4.63-11.28-9.17C68.56,93.41,68.41,93.12,68.24,92.8z"/>
	<path class="st0" d="M62.76,51.88c0,0.2,0,0.35,0,0.51c0,11.99,0.01,23.98-0.01,35.97c0,2.56-0.43,5.05-1.47,7.4
		c-1.54,3.47-4.14,5.82-7.73,6.95c-5.21,1.65-10.34,1.41-15.22-1.22c-3.52-1.9-6.2-4.67-8.07-8.2c-0.08-0.15-0.15-0.31-0.24-0.49
		c2.85-1.73,5.69-3.44,8.52-5.16c0.46,0.64,0.88,1.31,1.38,1.91c1.41,1.73,3.16,2.89,5.41,3.18c1.11,0.14,2.23,0.11,3.32-0.21
		c1.75-0.51,2.61-1.8,2.91-3.48c0.19-1.05,0.27-2.13,0.27-3.2c0.02-11.13,0.01-22.26,0.01-33.4c0-0.18,0-0.36,0-0.57
		C55.51,51.88,59.11,51.88,62.76,51.88z"/>
</g>
</svg>
