<?xml version="1.0" encoding="utf-8"?>
<!-- Generator: Adobe Illustrator 23.0.1, SVG Export Plug-In . SVG Version: 6.00 Build 0)  -->
<svg version="1.1" id="Layer_1" xmlns="http://www.w3.org/2000/svg" xmlns:xlink="http://www.w3.org/1999/xlink" x="0px" y="0px"
	 viewBox="0 0 125.76 35.51" style="enable-background:new 0 0 125.76 35.51;" xml:space="preserve">
<style type="text/css">
	.st0{fill:#313131;}
</style>
<g>
	<path class="st0" d="M7.59,0c1.19,1.58,2.46,3.13,3.57,4.78c3.33,4.96,4.61,10.45,3.9,16.36c-0.37,3.07-2.11,5.58-4.15,7.73
		c-1.56,1.65-2.13,3.41-2.04,5.54c0.01,0.33-0.04,0.66-0.06,1.09c-0.53,0-1.04,0-1.75,0c0.3-3.1-1.42-5.28-3.32-7.47
		c-5.16-5.96-4.21-12.61-1.67-19.23c0.77-2.02,2.33-3.74,3.52-5.6C6.28,2.1,6.97,0.99,7.59,0z"/>
	<path class="st0" d="M121.26,18.4c0.89,0.35,1.6,0.57,2.26,0.9c2.55,1.3,3.05,4.58,0.82,6.36c-1.01,0.81-2.41,1.45-3.67,1.54
		c-3.37,0.25-6.76,0.17-10.15,0.2c-0.14,0-0.29-0.1-0.49-0.18c2.38-0.95,2.39-0.95,2.39-3.66c0-3.18,0.05-6.36-0.02-9.54
		c-0.05-2.41,0.46-2.66-2.3-3.33c0.03-0.07,0.05-0.2,0.08-0.2c3.67,0.04,7.34,0,11,0.2c0.92,0.05,1.98,0.69,2.66,1.36
		c1.89,1.87,1.31,4.56-1.09,5.71C122.3,17.99,121.85,18.16,121.26,18.4z M116.37,19.16c0,2.08-0.01,4.09,0,6.1
		c0,0.81,0.5,1.17,1.25,1.24c1.51,0.14,3.05-0.92,3.49-2.4C122.04,21.06,120.03,18.88,116.37,19.16z M116.45,18.05
		c1.6,0.01,3.1-0.13,3.88-1.67c0.63-1.24,0.63-2.6-0.24-3.75c-0.92-1.22-2.26-1.29-3.65-1.16
		C116.45,13.72,116.45,15.85,116.45,18.05z"/>
	<path class="st0" d="M91.36,27.15c2.3-0.53,2.3-0.53,2.31-2.91c0-3.51,0-7.02,0-10.53c0-2.4-0.01-2.4-2.29-2.98
		c0.08-0.1,0.15-0.25,0.22-0.25c3.26,0.04,6.54-0.16,9.77,0.19c4.46,0.48,7.04,3.7,7.07,8.25c0.04,4.45-2.62,7.81-7.05,8.29
		c-3.22,0.35-6.51,0.14-9.77,0.18C91.56,27.38,91.5,27.28,91.36,27.15z M97.81,11.5c0,4.66,0.01,9.23-0.01,13.81
		c0,0.88,0.5,1.13,1.25,1.19c1.88,0.15,3.49-0.93,4.17-3.02c0.92-2.82,0.93-5.7,0.07-8.53C102.47,12.24,100.85,11.24,97.81,11.5z"/>
	<path class="st0" d="M25.64,27.33c-1.81,0-3.62,0-5.44,0c1.96-0.38,1.57-1.9,1.59-3.19c0.02-1.65,0.01-3.3-0.02-4.95
		c-0.03-1.79-0.04-1.79-1.8-2.2c1.23-0.5,2.45-0.99,3.83-1.55c0.07,0.92,0.13,1.59,0.19,2.3c3.97-2.84,5.27-2.81,6.84,0.11
		c0.56-0.49,1.07-1.03,1.67-1.46c2.32-1.68,4.88-0.66,5.19,2.17c0.22,2,0.11,4.04,0.13,6.06c0.02,1.89,0.01,1.89,1.93,2.69
		c-2.14,0-3.96,0-5.95,0c1.9-0.88,1.9-0.88,1.9-3c0-1.73,0.03-3.47-0.05-5.2c-0.07-1.69-1.24-2.39-2.82-1.8
		c-1.51,0.56-1.95,1.2-1.94,2.84c0,1.49,0.03,2.97-0.01,4.46c-0.03,1.28-0.06,2.52,2,2.38c-0.09,0.11-0.18,0.21-0.27,0.32
		c-1.86,0-3.72,0-5.76,0c1.93-0.89,1.93-0.89,1.93-3c0-1.69,0.02-3.39-0.05-5.08c-0.06-1.48-0.78-2.17-2.02-2.13
		c-1.43,0.05-2.78,1.19-2.79,2.39c-0.01,1.61-0.01,3.22,0,4.83C23.91,25.62,23.58,27.14,25.64,27.33z"/>
	<path class="st0" d="M75.58,17.61c0.15,0.57,0.35,1.07,0.42,1.58c0.36,2.71-1.86,4.78-4.84,4.52c-0.33-0.03-0.75-0.25-0.96-0.11
		c-0.5,0.31-0.89,0.78-1.33,1.19c0.35,0.27,0.68,0.72,1.05,0.77c1.27,0.15,2.55,0.17,3.83,0.22c1.54,0.06,3.03,0.23,3.65,1.95
		c0.46,1.3-0.27,2.88-1.92,3.94c-2.61,1.68-5.37,1.76-8.12,0.38c-1.49-0.74-1.64-1.55-0.67-2.86c0.46-0.63,1.01-1.19,1.52-1.79
		c-1.46-1.57-1.46-1.57,0.76-4.16c-1.96-1.67-2.5-3.58-1.5-5.39c1.04-1.89,3.4-2.68,5.72-2.04c1.13,0.31,2.32,0.35,3.47,0.59
		c0.35,0.07,0.66,0.38,0.99,0.58c-0.31,0.19-0.6,0.44-0.93,0.54C76.38,17.64,76,17.59,75.58,17.61z M72.36,31.72
		c1.06-0.39,2.3-0.7,3.36-1.32c0.45-0.26,0.76-1.18,0.7-1.76c-0.03-0.32-0.92-0.75-1.46-0.8c-1.76-0.19-3.53-0.21-5.3-0.33
		c-1.19-0.09-1.38,0.87-1.71,1.62c-0.36,0.81,0.14,1.4,0.85,1.65C69.88,31.14,71,31.37,72.36,31.72z M73.96,19.79
		c-0.25-0.72-0.43-1.8-0.97-2.67c-0.87-1.41-2.84-1.21-3.47,0.33c-0.68,1.66-0.54,3.35,0.52,4.82c1,1.38,2.94,1.06,3.54-0.55
		C73.77,21.23,73.8,20.68,73.96,19.79z"/>
	<path class="st0" d="M59.66,27.31c1.56-0.28,1.79-1.34,1.73-2.69c-0.07-1.65,0.02-3.3-0.04-4.95c-0.06-1.81-0.66-2.56-1.88-2.53
		c-1.56,0.04-2.84,1.27-2.84,2.75c0,1.61,0.02,3.22-0.01,4.83c-0.02,1.26,0.03,2.41,1.73,2.57c-1.82,0-3.63,0-5.45,0
		c1.76-0.23,1.61-1.54,1.61-2.75c0-1.82,0.01-3.63-0.02-5.45c-0.03-1.72-0.07-1.75-1.82-2.1c1.22-0.5,2.44-1,3.85-1.58
		c0.07,0.9,0.12,1.56,0.18,2.37c0.55-0.48,0.95-0.88,1.39-1.23c1.06-0.84,2.24-1.3,3.56-0.68c1.28,0.6,1.67,1.78,1.71,3.07
		c0.05,1.86,0.06,3.72,0.02,5.57c-0.02,1.28,0.06,2.44,1.67,2.79C63.27,27.31,61.46,27.31,59.66,27.31z"/>
	<path class="st0" d="M79,21.86c-0.01-3.51,2.36-6.21,5.5-6.24c3.13-0.03,5.57,2.51,5.59,5.82c0.02,3.58-2.48,6.35-5.72,6.33
		C81.36,27.76,79.01,25.17,79,21.86z M87.82,22.41c-0.11-2.16-0.57-3.79-1.49-4.9c-1.3-1.59-3.45-1.43-4.41,0.32
		C80.76,19.94,81.34,24.27,83,26c1.44,1.49,3.7,1.04,4.36-0.93C87.64,24.23,87.67,23.3,87.82,22.41z"/>
	<path class="st0" d="M51.55,21.43c0.02,4.32-3.47,7.26-7.24,6.11c-2.54-0.77-4.15-3.7-3.73-6.77c0.45-3.24,2.91-5.35,6.02-5.13
		C49.4,15.82,51.53,18.32,51.55,21.43z M49.35,22.4c-0.11-2.13-0.65-3.92-1.61-4.99c-1.36-1.53-3.48-1.27-4.39,0.54
		c-1.06,2.11-0.51,6.22,1.06,7.96c1.44,1.59,3.75,1.17,4.44-0.86C49.15,24.21,49.19,23.29,49.35,22.4z"/>
</g>
</svg>
