<?xml version="1.0" encoding="utf-8"?>
<!-- Generator: Adobe Illustrator 23.0.1, SVG Export Plug-In . SVG Version: 6.00 Build 0)  -->
<svg version="1.1" id="Layer_1" xmlns="http://www.w3.org/2000/svg" xmlns:xlink="http://www.w3.org/1999/xlink" x="0px" y="0px"
	 viewBox="0 0 113.76 125.36" style="enable-background:new 0 0 113.76 125.36;" xml:space="preserve">
<style type="text/css">
	.st0{fill:#313131;}
</style>
<g>
	<g>
		<path class="st0" d="M51.75,1.34c3.11-1.78,7.16-1.79,10.26,0c15.62,8.83,31.25,17.64,46.87,26.48c2.94,1.66,4.9,4.92,4.87,8.31
			v53.11c0.02,3.53-2.14,6.87-5.24,8.49c-15.57,8.78-31.14,17.57-46.71,26.35c-3.17,1.81-7.3,1.67-10.38-0.29
			c-4.67-2.71-9.35-5.4-14.01-8.1c-0.95-0.57-2.03-1.02-2.7-1.95c0.6-0.8,1.66-0.9,2.53-1.25c1.95-0.62,3.74-1.61,5.53-2.58
			c0.45-0.31,1.01-0.19,1.44,0.09c3.99,2.29,7.95,4.64,11.95,6.91c0.85,0.49,1.72-0.16,2.45-0.57C73.9,107.7,89.2,99.1,104.48,90.46
			c0.57-0.27,0.88-0.87,0.83-1.49c0.01-17.52,0-35.05,0.01-52.57c0.06-0.7-0.34-1.35-0.98-1.64C88.82,26.02,73.31,17.27,57.79,8.52
			c-0.55-0.38-1.28-0.38-1.83,0C40.45,17.27,24.94,26.03,9.42,34.77c-0.63,0.29-1.06,0.92-0.98,1.63c0,17.52,0,35.05,0,52.57
			c-0.06,0.62,0.28,1.21,0.84,1.47c4.14,2.35,8.29,4.68,12.43,7.02c2.33,1.26,5.2,2,7.77,1.04c2.27-0.81,3.86-3.13,3.82-5.54
			c0.02-17.42-0.01-34.84,0.02-52.26c-0.06-0.77,0.68-1.41,1.43-1.34c1.99-0.01,3.98-0.03,5.97,0.01c0.83-0.02,1.4,0.81,1.3,1.59
			C42.01,58.49,42.04,76.02,42,93.55c0.01,4.67-1.91,9.76-6.24,12.04c-5.32,2.76-11.9,2.17-17.16-0.47
			c-4.55-2.27-8.9-4.95-13.37-7.39C2.13,96.12-0.02,92.76,0,89.24V36.12c-0.03-3.46,2.01-6.78,5.04-8.42
			C20.61,18.92,36.18,10.13,51.75,1.34z"/>
		<path class="st0" d="M65.31,38.13c6.79-0.44,14.06-0.26,20.17,3.09c4.73,2.56,7.35,7.94,7.44,13.2c-0.13,0.71-0.87,1.1-1.55,1.05
			c-1.97,0-3.94,0.03-5.91-0.01c-0.84,0.03-1.32-0.74-1.43-1.48c-0.57-2.51-1.94-5.01-4.3-6.22c-3.63-1.82-7.85-1.73-11.81-1.69
			c-2.89,0.15-6,0.4-8.45,2.1c-1.88,1.29-2.45,3.89-1.78,5.98c0.63,1.5,2.37,1.99,3.79,2.44c8.18,2.14,16.85,1.93,24.88,4.74
			c3.32,1.15,6.57,3.38,7.71,6.86c1.49,4.66,0.84,10.24-2.48,13.98c-2.69,3.08-6.61,4.76-10.52,5.67c-5.2,1.16-10.6,1.19-15.88,0.67
			c-4.97-0.57-10.13-1.87-13.96-5.25c-3.28-2.85-4.88-7.28-4.72-11.56c0.04-0.72,0.76-1.23,1.45-1.17c1.98-0.02,3.97-0.02,5.95,0
			c0.79-0.06,1.38,0.63,1.42,1.37c0.37,2.4,1.27,4.91,3.36,6.33c4.03,2.6,9.09,2.42,13.71,2.5c3.82-0.17,8.12-0.22,11.24-2.75
			c1.65-1.44,2.13-3.85,1.69-5.93c-0.48-1.75-2.32-2.57-3.89-3.1c-8.08-2.56-16.85-1.63-24.85-4.52c-3.25-1.15-6.39-3.32-7.64-6.65
			c-1.74-4.72-0.94-10.56,2.72-14.18C55.25,40.01,60.41,38.63,65.31,38.13L65.31,38.13z"/>
	</g>
</g>
</svg>
