<?xml version="1.0" encoding="utf-8"?>
<!-- Generator: Adobe Illustrator 23.0.1, SVG Export Plug-In . SVG Version: 6.00 Build 0)  -->
<svg version="1.1" id="Layer_1" xmlns="http://www.w3.org/2000/svg" xmlns:xlink="http://www.w3.org/1999/xlink" x="0px" y="0px"
	 viewBox="0 0 125.86 114.93" style="enable-background:new 0 0 125.86 114.93;" xml:space="preserve">
<style type="text/css">
	.st0{fill:#313131;}
</style>
<g>
	<path class="st0" d="M99.87,77.8c0.41,1.74,0.84,3.45,1.2,5.17c1.02,4.82,1.64,9.68,1.41,14.61c-0.15,3.36-0.7,6.65-2.16,9.72
		c-1.41,2.96-3.47,5.29-6.55,6.6c-2.38,1.01-4.86,1.21-7.39,0.87c-4.3-0.58-8.11-2.4-11.74-4.66c-4-2.49-7.6-5.5-10.99-8.76
		c-0.26-0.25-0.52-0.49-0.79-0.76c-0.7,0.66-1.37,1.3-2.05,1.93c-3.49,3.25-7.22,6.17-11.37,8.54c-2.73,1.56-5.58,2.81-8.68,3.45
		c-2.74,0.57-5.47,0.59-8.15-0.35c-3.4-1.2-5.69-3.61-7.24-6.79c-1.19-2.44-1.77-5.05-2.05-7.74c-0.62-6.07,0.2-12.03,1.5-17.94
		c0.29-1.31,0.63-2.62,0.96-3.96c-0.96-0.31-1.92-0.6-2.87-0.91c-4.79-1.57-9.39-3.55-13.59-6.37c-2.67-1.79-5.07-3.86-6.88-6.55
		c-1.77-2.64-2.71-5.52-2.39-8.74c0.23-2.31,1.09-4.38,2.38-6.29c1.83-2.71,4.25-4.81,6.94-6.61c4.29-2.87,9-4.85,13.88-6.44
		c0.68-0.22,1.36-0.43,2.09-0.66c-0.18-0.78-0.36-1.54-0.53-2.31c-1-4.49-1.65-9.03-1.64-13.65c0.01-3.4,0.39-6.76,1.59-9.98
		c0.89-2.39,2.18-4.52,4.14-6.19c2.75-2.34,5.98-3.12,9.51-2.84c4.31,0.34,8.14,2.06,11.8,4.24c4.44,2.64,8.38,5.93,12.09,9.51
		c0.14,0.14,0.29,0.27,0.45,0.43c0.26-0.25,0.51-0.48,0.76-0.72c3.38-3.26,6.96-6.26,10.94-8.76c3.05-1.92,6.25-3.51,9.78-4.36
		c2.69-0.65,5.4-0.78,8.09-0.02c3.49,0.99,5.95,3.24,7.65,6.38c1.35,2.5,2.02,5.2,2.34,8c0.57,4.94,0.14,9.83-0.75,14.69
		c-0.31,1.69-0.69,3.37-1.09,5.04c-0.1,0.43,0,0.55,0.4,0.67c3.56,1.04,7.02,2.33,10.35,3.97c3.44,1.69,6.69,3.68,9.46,6.37
		c2.03,1.98,3.68,4.22,4.55,6.95c1.2,3.75,0.59,7.28-1.41,10.61c-1.65,2.75-3.95,4.87-6.54,6.7c-4.09,2.89-8.6,4.92-13.31,6.55
		c-1.23,0.43-2.48,0.8-3.72,1.2C100.13,77.71,100,77.76,99.87,77.8z M62.8,35.54c-3.41,0.16-6.96,0.34-10.52,0.5
		c-0.28,0.01-0.43,0.13-0.58,0.35c-4.59,6.63-8.64,13.57-12.13,20.84c-0.08,0.17-0.08,0.45,0,0.62c3.07,6.38,6.57,12.52,10.51,18.4
		c0.15,0.22,0.31,0.34,0.58,0.36c1.92,0.12,3.84,0.28,5.76,0.37c6.16,0.27,12.31,0.16,18.46-0.33c0.28-0.02,0.46-0.12,0.62-0.36
		c3.96-5.91,7.48-12.06,10.58-18.46c0.13-0.26,0.17-0.47,0.03-0.76c-3.46-7.14-7.45-13.97-11.94-20.5
		c-0.25-0.37-0.52-0.54-0.97-0.56C69.78,35.86,66.37,35.7,62.8,35.54z M66.74,96.62c0.38,0.4,0.72,0.79,1.09,1.15
		c3.44,3.3,7.12,6.29,11.29,8.63c2.68,1.51,5.46,2.75,8.57,3.04c3.16,0.29,5.68-0.81,7.27-3.63c0.53-0.94,0.94-1.97,1.24-3.01
		c1.06-3.7,1.01-7.49,0.68-11.28c-0.29-3.33-0.9-6.62-1.69-9.87c-0.2-0.81-0.41-1.62-0.63-2.45c-0.19,0.04-0.31,0.06-0.44,0.09
		c-1.73,0.36-3.44,0.78-5.18,1.06c-3.36,0.53-6.72,0.98-10.09,1.45c-0.28,0.04-0.43,0.16-0.57,0.37c-2.95,4.24-6.11,8.33-9.53,12.21
		C68.07,95.13,67.39,95.89,66.74,96.62z M31.26,79.19c-0.04,0.04-0.07,0.06-0.07,0.08c-0.28,1.13-0.59,2.25-0.84,3.38
		c-1.19,5.24-1.94,10.53-1.51,15.92c0.18,2.18,0.59,4.32,1.53,6.32c1.03,2.19,2.6,3.76,5.06,4.28c1.2,0.25,2.4,0.21,3.6,0
		c2.72-0.47,5.2-1.58,7.58-2.93c4.16-2.36,7.84-5.35,11.28-8.65c0.35-0.33,0.67-0.69,1.02-1.05c-0.1-0.11-0.19-0.22-0.28-0.32
		c-3.8-4.16-7.33-8.54-10.52-13.18c-0.63-0.92-1.33-1.27-2.4-1.41c-3.62-0.49-7.23-1.08-10.84-1.68
		C33.65,79.75,32.45,79.45,31.26,79.19z M30.64,33.73c0.2-0.04,0.35-0.07,0.5-0.1c5.63-1.35,11.34-2.23,17.1-2.78
		c0.43-0.04,0.69-0.2,0.94-0.54c2.45-3.4,5.06-6.69,7.83-9.84c0.63-0.72,1.27-1.43,1.91-2.14c-0.05-0.06-0.07-0.1-0.1-0.13
		c-3.49-3.41-7.2-6.55-11.41-9.06c-2.73-1.62-5.57-2.97-8.75-3.44c-1.82-0.27-3.58-0.11-5.22,0.81c-1.68,0.95-2.7,2.46-3.39,4.2
		c-0.98,2.45-1.3,5.02-1.38,7.63c-0.11,3.95,0.35,7.85,1.14,11.71C30.08,31.28,30.37,32.49,30.64,33.73z M66.7,18.37
		c0.06,0.09,0.09,0.14,0.13,0.18c3.48,3.79,6.7,7.79,9.73,11.95c0.11,0.15,0.34,0.25,0.53,0.28c1.17,0.14,2.34,0.22,3.51,0.39
		c3.4,0.51,6.8,1.04,10.2,1.61c1.4,0.23,2.77,0.59,4.18,0.89c0.04-0.13,0.09-0.25,0.11-0.37c0.42-2.05,0.89-4.09,1.23-6.16
		c0.65-3.95,0.92-7.92,0.42-11.92c-0.25-1.94-0.69-3.84-1.61-5.59c-1.42-2.71-3.64-4.09-6.72-4.04c-1.99,0.04-3.89,0.56-5.71,1.33
		C76.51,9.52,71.48,13.75,66.7,18.37z M98.29,72.48c0.27-0.08,0.51-0.15,0.76-0.22c4.53-1.36,8.92-3.05,12.99-5.5
		c2.29-1.38,4.42-2.95,6.13-5.03c1.2-1.46,2.06-3.08,2.16-5.01c0.1-2.04-0.69-3.78-1.9-5.36c-1.57-2.04-3.58-3.59-5.74-4.96
		c-3.87-2.44-8.07-4.15-12.42-5.53c-0.44-0.14-0.89-0.28-1.33-0.41c-0.04,0.09-0.06,0.13-0.07,0.17c-1.74,5.68-3.91,11.2-6.36,16.61
		c-0.08,0.18-0.04,0.47,0.04,0.67c1.28,3.11,2.62,6.2,3.87,9.33C97.1,68.95,97.66,70.7,98.29,72.48z M27.35,72.42
		c0.06-0.15,0.11-0.26,0.15-0.38c1.59-4.85,3.49-9.59,5.63-14.22c0.15-0.32,0.13-0.57-0.01-0.88c-2.07-4.5-3.9-9.09-5.44-13.79
		c-0.28-0.87-0.56-1.74-0.85-2.65c-0.72,0.23-1.4,0.44-2.08,0.66c-4.32,1.41-8.48,3.18-12.29,5.71c-2.08,1.38-4,2.95-5.43,5.04
		c-1.12,1.62-1.73,3.39-1.46,5.39c0.21,1.52,0.88,2.84,1.79,4.04c1.57,2.06,3.58,3.63,5.75,5C17.53,69.11,22.33,70.95,27.35,72.42z
		 M62.76,92.61c1.49-1.37,7.93-9.21,8.37-10.2c-5.57,0.32-11.12,0.3-16.77-0.02C57.04,86,59.8,89.37,62.76,92.61z M80.82,36.74
		c3.08,4.63,5.82,9.32,8.34,14.24c1.67-3.97,3.12-7.91,4.36-11.96C89.35,38.03,85.16,37.29,80.82,36.74z M32.13,39.09
		c1.23,4.02,2.66,7.94,4.32,11.86c2.51-4.9,5.24-9.57,8.24-14.13C42.92,36.87,34.16,38.45,32.13,39.09z M89.32,64.01
		c-2.28,4-4.5,7.88-6.71,11.76c3.44-0.47,6.9-1.08,10.43-1.91C91.79,70.55,90.56,67.3,89.32,64.01z M36.47,64.09
		c-1.35,3.19-2.59,6.44-3.67,9.77c3.45,0.79,6.88,1.42,10.3,1.89C40.89,71.86,38.69,67.99,36.47,64.09z M62.91,22.27
		c-2.39,2.61-4.58,5.23-6.65,7.93c4.41,0,8.78,0,13.3,0C67.31,27.51,65.13,24.91,62.91,22.27z"/>
	<path class="st0" d="M76.59,57.51c-0.02,7.54-6.17,13.67-13.68,13.65C55.37,71.14,49.24,65,49.25,57.48
		c0.01-7.54,6.19-13.69,13.73-13.65C70.49,43.86,76.6,50.01,76.59,57.51z"/>
</g>
</svg>
